<svg width="516" height="214" viewBox="0 0 516 214" fill="none" xmlns="http://www.w3.org/2000/svg">
<path d="M107.981 6.83106L119.251 15.2175V157L107.981 148.614V57.2805C106.147 54.7471 104.225 52.3011 102.216 49.9424C100.207 47.4964 98.0662 45.225 95.7949 43.1284C93.9604 44.6135 91.5143 46.7538 88.4568 49.5493C85.4866 52.2574 82.0797 55.708 78.2359 59.9012C74.4795 64.0071 70.2863 68.8991 65.6563 74.5774C61.1137 80.2557 56.3526 86.8076 51.3732 94.2331C49.7134 96.6791 47.8352 97.8147 45.7386 97.64C43.7294 97.3779 41.8075 96.417 39.9729 94.7572C38.1384 93.01 36.6096 90.8261 35.3866 88.2053C34.1636 85.4972 33.5521 82.9638 33.5521 80.6052C34.6004 81.5661 35.9108 81.8282 37.4832 81.3914C39.143 80.8672 41.0212 79.8626 43.1178 78.3775C44.1661 75.6694 44.3409 72.5245 43.642 68.9428C43.0305 65.3611 41.5454 62.1725 39.1867 59.3771C36.9154 56.4943 33.8142 54.4413 29.8831 53.2183C26.0393 51.9079 21.453 52.2137 16.1241 54.1356C14.8137 54.5724 13.1539 54.5287 11.1447 54.0045C9.22282 53.4804 7.43197 52.6068 5.77216 51.3838C4.11235 50.0734 2.88934 48.5447 2.10311 46.7975C1.31689 44.963 1.4916 43.0411 2.62726 41.0318C3.15141 40.0709 4.28707 38.4548 6.03424 36.1834C7.7814 33.8248 10.0527 31.2914 12.8482 28.5833C15.731 25.8752 19.0506 23.2107 22.807 20.59C26.6508 17.9692 30.8877 15.829 35.5177 14.1692C40.1477 12.5093 45.1708 11.5484 50.587 11.2863C56.0906 11.0243 61.8999 11.9852 68.015 14.1692C74.13 16.2658 80.5072 19.8038 87.1464 24.7832C93.873 29.6753 100.818 36.4455 107.981 45.094V6.83106ZM50.4559 72.0877C53.0767 69.6417 55.8722 66.8899 58.8423 63.8324C61.8999 60.6875 65.0011 57.4989 68.146 54.2666C71.2909 51.0344 74.4795 47.8895 77.7117 44.8319C81.0314 41.687 84.3073 38.8479 87.5395 36.3145C82.4728 32.6454 77.2313 29.7626 71.815 27.666C66.3988 25.4821 60.9826 24.3901 55.5664 24.3901C50.2375 24.3027 44.996 25.3947 39.8419 27.666C34.7751 29.9373 30.1015 33.6064 25.8209 38.6732C29.752 39.1973 33.3774 40.5077 36.697 42.6043C40.0166 44.6135 42.8121 47.1469 45.0834 50.2045C47.4421 53.262 49.1019 56.7127 50.0628 60.5564C51.1111 64.3128 51.2422 68.1566 50.4559 72.0877ZM193.724 172.724C195.821 173.86 197.873 174.734 199.883 175.345C204.513 176.83 208.619 177.398 212.2 177.049C215.782 176.699 218.621 175.607 220.718 173.773C222.814 172.026 223.775 169.798 223.6 167.09C223.426 164.382 222.159 162.722 219.8 162.11C217.442 161.499 214.69 161.586 211.545 162.373C208.4 163.159 205.212 164.425 201.979 166.173C198.834 167.92 196.301 169.842 194.379 171.938C194.204 172.2 193.986 172.462 193.724 172.724ZM190.448 176.656C190.273 176.918 190.099 177.136 189.924 177.311C188.089 179.582 186.43 182.028 184.944 184.649C183.547 187.27 182.542 189.934 181.931 192.642C181.319 195.438 181.537 198.058 182.586 200.504L171.185 201.291C170.923 197.971 171.404 194.477 172.627 190.808C173.937 187.139 175.641 183.601 177.737 180.194C179.397 177.573 181.144 175.083 182.979 172.724C180.445 171.152 178.043 169.492 175.772 167.745C165.988 160.232 158.3 152.414 152.709 144.289C147.118 136.078 143.143 127.822 140.785 119.523C138.426 111.224 137.422 102.969 137.771 94.7572C138.208 86.5455 139.518 78.6396 141.702 71.0394C143.449 65.0117 145.633 59.246 148.254 53.7425C148.167 53.393 148.036 53.0436 147.861 52.6942C145.415 47.4527 142.445 42.5606 138.95 38.018C135.456 33.388 131.525 29.4132 127.157 26.0936C122.876 22.7739 118.421 20.59 113.791 19.5417L111.694 9.97595C117.285 11.8105 122.44 14.5186 127.157 18.1003C131.874 21.682 136.024 25.7878 139.605 30.4178C143.187 34.9604 146.157 39.7215 148.516 44.7009C149.215 46.3607 149.87 47.9768 150.482 49.5493C153.976 42.91 157.732 36.926 161.751 31.5971C165.682 26.2683 169.613 21.7256 173.544 17.9692C177.563 14.2128 181.057 11.5484 184.027 9.97595L184.289 10.107L193.069 19.4107C190.797 21.3325 188.395 23.5165 185.862 25.9625C181.581 30.1557 177.432 34.9604 173.413 40.3766C169.395 45.7055 165.638 51.5585 162.144 57.9357C158.737 64.3128 155.985 71.0394 153.889 78.1154C151.879 85.1915 150.7 92.4859 150.351 99.9987C150.088 107.512 151.093 115.068 153.364 122.668C155.636 130.268 159.348 137.869 164.503 145.469C169.657 152.982 176.689 160.276 185.6 167.352C186.036 167.701 186.473 168.051 186.91 168.4C188.745 166.478 190.535 164.862 192.283 163.552C195.602 161.018 199.359 159.097 203.552 157.786C207.832 156.563 211.982 156.039 216 156.214C220.019 156.301 223.6 157.087 226.745 158.572C229.89 160.145 232.074 162.416 233.297 165.386C234.695 168.968 234.651 172.069 233.166 174.69C231.768 177.311 229.366 179.32 225.959 180.718C222.552 182.116 218.446 182.814 213.642 182.814C208.837 182.814 203.858 181.941 198.703 180.194C196.083 179.32 193.331 178.141 190.448 176.656ZM216.568 42.7353V75.2326C216.568 77.2419 217.486 78.3338 219.32 78.5086C221.242 78.5959 223.645 78.0718 226.527 76.9361C229.41 75.8004 232.555 74.228 235.962 72.2188C239.369 70.1222 242.645 67.8508 245.79 65.4048C249.022 62.8714 251.861 60.2943 254.307 57.6736C256.753 55.0528 258.413 52.6942 259.287 50.5976C255.006 51.9953 250.42 52.5631 245.528 52.3011C240.636 51.9516 236.006 51.1654 231.638 49.9424C227.27 48.632 223.47 47.0159 220.238 45.094C218.752 44.3078 217.529 43.5215 216.568 42.7353ZM266.363 47.9768C271.342 49.0251 275.928 50.816 280.122 53.3494C285.363 56.5816 289.382 60.338 292.177 64.6186C295.06 68.8118 296.414 73.2671 296.239 77.9844C296.152 82.6144 294.099 86.8513 290.081 90.695C287.46 93.1411 283.834 95.2813 279.204 97.1159C274.662 98.863 269.682 100.523 264.266 102.095C258.937 103.668 253.477 105.24 247.886 106.813C242.383 108.385 237.36 110.263 232.817 112.447C228.362 114.544 224.693 117.077 221.81 120.047C218.927 122.93 217.486 126.425 217.486 130.53C226.658 126.163 235.569 123.848 244.217 123.585C252.866 123.236 261.34 124.328 269.639 126.861C277.938 129.395 286.149 133.02 294.274 137.737C302.485 142.455 310.697 147.653 318.909 153.331C327.12 159.009 335.463 164.819 343.937 170.759C352.498 176.699 361.278 182.159 370.275 187.139C379.273 192.118 388.577 196.311 398.186 199.718C407.883 203.213 418.017 205.222 428.587 205.746C439.157 206.357 450.252 205.178 461.871 202.208C473.489 199.325 485.807 194.084 498.823 186.483C502.23 184.037 505.375 182.116 508.258 180.718C511.141 179.407 513.063 178.84 514.024 179.014C514.984 179.189 514.548 180.194 512.713 182.028C510.966 183.863 507.122 186.658 501.182 190.415C498.998 191.812 495.94 193.734 492.009 196.18C488.078 198.626 483.317 201.072 477.726 203.518C472.135 206.052 465.714 208.279 458.464 210.201C451.213 212.21 443.22 213.346 434.484 213.608C425.748 213.87 416.27 213.04 406.049 211.118C395.915 209.284 385.083 205.746 373.551 200.504C365.951 197.01 358.482 192.904 351.144 188.187C343.806 183.557 336.511 178.709 329.261 173.642C322.097 168.575 314.978 163.552 307.902 158.572C300.826 153.593 293.837 149.05 286.936 144.945C280.034 140.839 273.177 137.432 266.363 134.724C259.549 131.928 252.779 130.268 246.052 129.744C239.325 129.22 232.642 130.006 226.003 132.103C219.364 134.112 212.725 137.912 206.085 143.503C204.688 140.708 203.945 137.606 203.858 134.199C203.858 130.793 204.819 127.386 206.741 123.979C208.663 120.572 211.676 117.296 215.782 114.151C219.975 110.918 225.566 108.167 232.555 105.895C235.875 104.76 239.718 103.537 244.086 102.226C248.454 100.916 252.866 99.5182 257.321 98.0331C261.776 96.4607 266.057 94.8009 270.163 93.0537C274.269 91.2192 277.807 89.2973 280.777 87.2881C283.747 85.2788 285.887 83.1385 287.198 80.8672C288.595 78.5959 288.726 76.2372 287.591 73.7912C286.455 71.2578 283.878 68.5934 279.86 65.7979C276.453 63.5266 271.779 61.1242 265.839 58.5909C265.227 60.0759 264.266 61.6921 262.956 63.4392C261.034 66.1474 258.544 68.8991 255.487 71.6946C252.429 74.4027 248.978 77.0235 245.135 79.5569C241.291 82.0902 237.272 84.2305 233.079 85.9777C228.187 87.9869 223.994 88.9479 220.5 88.8605C217.005 88.6858 214.166 87.9869 211.982 86.7639C209.798 85.5409 208.182 84.0121 207.134 82.1776C206.173 80.3431 205.692 78.7706 205.692 77.4603V32.1213C203.77 29.9373 201.761 27.9718 199.665 26.2246C195.646 22.905 191.497 20.721 187.216 19.6727L185.251 10.107C190.405 11.9415 195.166 14.6496 199.534 18.2313C201.718 20.0658 203.77 21.9877 205.692 23.997V0.279181L216.568 9.4518V18.8865C219.539 17.052 222.815 15.3922 226.396 13.9071C232.686 11.199 239.282 9.18973 246.183 7.87935C253.084 6.56898 259.942 6.00115 266.756 6.17587C273.657 6.35058 279.991 7.31153 285.756 9.05869C291.609 10.8059 296.632 13.4703 300.826 17.052C305.019 20.5463 307.858 25.0016 309.343 30.4178C306.111 27.535 302.354 25.0016 298.074 22.8176C293.793 20.5463 289.12 18.7991 284.053 17.5761C278.986 16.3531 273.613 15.6542 267.935 15.4795C262.257 15.2175 256.404 15.6542 250.376 16.7899C244.348 17.9256 238.233 19.7601 232.031 22.2935C226.789 24.3901 221.635 27.0982 216.568 30.4178V35.5283C217.617 36.5766 218.971 37.4938 220.631 38.28C223.863 40.0272 227.838 41.2502 232.555 41.9491C237.272 42.5606 242.383 42.6043 247.886 42.0801C253.39 41.4686 258.763 40.1146 264.004 38.018C264.703 40.1146 265.271 42.2549 265.708 44.4388C265.97 45.5745 266.188 46.7538 266.363 47.9768ZM323.408 50.0734C321.224 45.7929 318.691 41.7307 315.808 37.8869C312.314 33.3443 308.382 29.4132 304.014 26.0936C299.734 22.7739 295.279 20.59 290.649 19.5417L288.552 9.97595C294.143 11.8105 299.297 14.5186 304.014 18.1003C308.732 21.682 312.881 25.7441 316.463 30.2868C319.171 33.7811 321.486 37.3191 323.408 40.9008V9.97595L334.677 18.3624V192.118L323.408 183.601V50.0734ZM352.018 114.413C359.269 117.47 366.083 120.79 372.46 124.372C375.168 125.944 377.92 127.691 380.715 129.613C383.511 131.448 386.132 133.413 388.578 135.51C391.111 137.606 393.382 139.834 395.392 142.193C397.401 144.464 399.017 146.823 400.24 149.269L400.895 143.11C399.847 140.664 398.406 138.305 396.571 136.034C394.824 133.675 392.858 131.448 390.674 129.351C388.49 127.254 386.175 125.289 383.729 123.454C381.283 121.533 378.837 119.785 376.391 118.213C370.713 114.631 364.642 111.312 358.177 108.254L352.018 114.413ZM416.096 129.351V50.0734C414.873 50.947 413.475 51.9516 411.902 53.0873C409.282 55.0092 406.355 57.0621 403.123 59.246C399.891 61.43 396.44 63.7013 392.771 66.06C389.189 68.3313 385.651 70.5589 382.157 72.7429C378.663 74.9269 375.299 76.9798 372.067 78.9017C368.835 80.7362 365.996 82.3086 363.55 83.619C371.062 85.4535 378.269 88.4674 385.171 92.6606C388.141 94.4951 391.155 96.6791 394.212 99.2125C397.357 101.746 400.371 104.716 403.254 108.123C406.137 111.53 408.845 115.374 411.378 119.654C413.125 122.625 414.698 125.857 416.096 129.351ZM416.096 32.7765V9.97595L427.365 18.3624V157L416.096 148.483V142.193C411.291 132.496 405.744 124.459 399.454 118.082C392.989 111.705 386.437 106.769 379.798 103.275C373.159 99.6929 366.782 97.4653 360.667 96.5917C354.639 95.6308 349.529 95.6745 345.335 96.7228C344.811 91.656 345.03 87.5501 345.991 84.4052C347.039 81.2603 348.83 78.5522 351.363 76.2809C353.896 73.9222 357.216 71.7383 361.322 69.729C365.428 67.6324 370.276 65.1864 375.867 62.3909C381.458 59.5955 387.835 56.1011 394.999 51.9079C401.114 48.4136 407.797 44.002 415.047 38.6732C413.824 37.4501 412.645 36.2708 411.509 35.1351C406.53 30.7672 401.463 27.4476 396.309 25.1763C391.155 22.8176 385.957 21.4199 380.715 20.9831C375.474 20.5463 370.276 20.8521 365.122 21.9004C360.055 22.8613 355.076 24.5211 350.184 26.8798C345.379 29.1511 340.836 31.8592 336.556 35.0041L332.101 24.6522C335.595 21.7693 339.657 19.2359 344.287 17.052C348.917 14.7807 353.853 13.1645 359.094 12.2036C364.423 11.1553 369.927 10.8932 375.605 11.4174C381.371 11.8542 387.093 13.3392 392.771 15.8726C398.537 18.3187 404.215 21.9004 409.806 26.6177C411.99 28.4522 414.086 30.5052 416.096 32.7765ZM454.534 50.0734C452.35 45.7929 449.816 41.7307 446.933 37.8869C443.439 33.3443 439.508 29.4132 435.14 26.0936C430.859 22.7739 426.404 20.59 421.774 19.5417L419.678 9.97595C425.269 11.8105 430.423 14.5186 435.14 18.1003C439.857 21.682 444.007 25.7441 447.589 30.2868C450.297 33.7811 452.612 37.3191 454.534 40.9008V9.97595L465.803 18.3624V192.118L454.534 183.601V50.0734Z" fill="#D54E54"/>
</svg>
